<svg xmlns="http://www.w3.org/2000/svg" width="24" height="24"><path fill="#fbf7f3" d="M23 2H1a1 1 0 00-1 1v18a1 1 0 001 1h22a1 1 0 001-1V3a1 1 0 00-1-1m-1 18h-2v-1h-5v1H2V4h20v16M10.29 9.71A1.71 1.71 0 0112 8a1.71 1.71 0 11-1.71 1.71m-4.58 1.58c0-.71.58-1.29 1.29-1.29a1.29 1.29 0 011.29 1.29c0 .71-.58 1.28-1.29 1.28-.71 0-1.29-.57-1.29-1.28m10 0A1.29 1.29 0 0117 10a1.29 1.29 0 011.29 1.29c0 .71-.58 1.28-1.29 1.28-.71 0-1.29-.57-1.29-1.28M20 15.14V16H4v-.86c0-.94 1.55-1.71 3-1.71.55 0 1.11.11 1.6.3a5.32 5.32 0 013.4-1.16c1.3 0 2.65.47 3.4 1.16a4.5 4.5 0 011.6-.3c1.45 0 3 .77 3 1.71z"/></svg>